<svg width="45" height="45" viewBox="0 0 45 45" fill="none" xmlns="http://www.w3.org/2000/svg">
<g clip-path="url(#clip0_144_568)">
<path d="M44.4506 41.7994L33.2587 30.6075C36.3086 26.8774 37.8082 22.1177 37.4472 17.3129C37.0862 12.5082 34.8922 8.02601 31.3192 4.7935C27.7461 1.56098 23.0673 -0.174559 18.2505 -0.0541239C13.4338 0.0663107 8.84753 2.0335 5.44048 5.44054C2.03344 8.84759 0.0662497 13.4338 -0.054185 18.2506C-0.17462 23.0674 1.56091 27.7462 4.79343 31.3192C8.02595 34.8923 12.5081 37.0862 17.3129 37.4472C22.1176 37.8082 26.8773 36.3087 30.6075 33.2588L41.7993 44.4507C42.153 44.7922 42.6266 44.9812 43.1182 44.9769C43.6098 44.9726 44.0801 44.7755 44.4277 44.4278C44.7754 44.0802 44.9726 43.6099 44.9769 43.1183C44.9811 42.6267 44.7921 42.153 44.4506 41.7994ZM18.75 33.75C15.7832 33.75 12.8831 32.8703 10.4164 31.2221C7.94967 29.5738 6.02708 27.2312 4.89176 24.4903C3.75645 21.7494 3.4594 18.7334 4.03818 15.8237C4.61696 12.9139 6.04557 10.2412 8.14336 8.14342C10.2411 6.04563 12.9139 4.61702 15.8236 4.03824C18.7333 3.45946 21.7493 3.75651 24.4902 4.89183C27.2311 6.02714 29.5738 7.94973 31.222 10.4165C32.8702 12.8832 33.75 15.7833 33.75 18.75C33.7455 22.7269 32.1637 26.5396 29.3516 29.3517C26.5396 32.1638 22.7268 33.7456 18.75 33.75Z" fill="#585858"/>
</g>
<defs>
<clipPath id="clip0_144_568">
<rect width="45" height="45" fill="white"/>
</clipPath>
</defs>
</svg>
